<?xml version="1.0"?>
<svg xmlns="http://www.w3.org/2000/svg" id="Capa_1" enable-background="new 0 0 512 512" height="512px" viewBox="0 0 512 512" width="512px" class=""><g><g><path d="m270.333 304.391h49.001v30h-49.001z" transform="matrix(.959 -.283 .283 .959 -78.291 96.421)" data-original="#000000" class="active-path" data-old_color="#000000" fill="#FFFFFF"/><path d="m202.781 293.559h30v51.665h-30z" transform="matrix(.268 -.963 .963 .268 -148.322 443.519)" data-original="#000000" class="active-path" data-old_color="#000000" fill="#FFFFFF"/><path d="m447.297 153.632-25.797-64.492v-89.14h-15c-41.355 0-75 33.645-75 75v1.711c-32.028 4.444-59.483 23.384-75.5 49.965-16.017-26.581-43.472-45.521-75.5-49.965v-1.711c0-41.355-33.645-75-75-75h-15v89.14l-25.797 64.492-64.703 21.204v70.869c0 24.813 20.187 45 45 45h26.751v18.795c0 24.813 20.187 45 45 45h15.001v33.215l35.915 10v69.285c0 24.813 20.187 45 45 45h88.666c24.813 0 45-20.187 45-45v-69.464l33.915-10v-33.036h15.001c24.813 0 45-20.187 45-45v-18.795h26.751c24.813 0 45-20.187 45-45v-70.869zm-55.797-121.062v43.135h-30v-.705c0-19.557 12.539-36.239 30-42.43zm-241 42.43v.705h-30v-43.135c17.461 6.191 30 22.873 30 42.43zm-33.749 249.5c-8.271 0-15-6.729-15-15v-48.795h-56.751c-8.271 0-15-6.729-15-15v-25h33v-30h-15.09l39.446-12.927 28.829-72.073h49.815c41.355 0 75 33.645 75 75v43.295h-19.648c-3.891-37.728-35.862-67.25-74.6-67.25h-15v167.75zm74.574-98.897c-10.913 2.291-20.96 6.958-29.573 13.438v-49.72c15.599 5.53 27.261 19.436 29.573 36.282zm158.923 139.501-33.915 10v91.896c0 8.271-6.729 15-15 15h-30.333v-34h15.333v-30h-58.666v30h13.333v34h-28.333c-8.271 0-15-6.729-15-15v-92.074l-35.915-10v-65.926c0-24.813 20.187-45 45-45h98.496c24.813 0 45 20.187 45 45zm0-126.063c-8.613-6.48-18.66-11.147-29.573-13.438 2.312-16.846 13.974-30.752 29.573-36.283zm116.752 21.664h-56.751v48.795c0 8.271-6.729 15-15 15h-15.001v-167.75h-15c-38.739 0-70.709 29.522-74.6 67.25h-19.648v-43.295c0-41.355 33.645-75 75-75h49.815l28.829 72.073 39.446 12.927h-15.09v30h33v25c0 8.272-6.729 15-15 15z" data-original="#000000" class="active-path" data-old_color="#000000" fill="#FFFFFF"/></g></g> </svg>
