<?xml version="1.0"?>
<svg xmlns="http://www.w3.org/2000/svg" id="Capa_1" enable-background="new 0 0 512 512" height="512px" viewBox="0 0 512 512" width="512px" class=""><g><g><path d="m256 392.733-35.188-35.188v.287h-199.819c8.768 20.221 20.187 39.308 34.082 56.834h401.851c13.895-17.525 25.314-36.613 34.082-56.833h-200.108z" data-original="#000000" class="active-path" data-old_color="#000000" fill="#48BB78"/><path d="m240.41 155.924 15.59 15.59 15.59-15.59c29.889-29.887 78.14-30.463 108.76-1.758h110.657c-8.768-20.221-20.187-39.308-34.082-56.834h-401.849c-13.895 17.525-25.314 36.613-34.082 56.834h110.658c30.619-28.705 78.869-28.133 108.758 1.758z" data-original="#000000" class="active-path" data-old_color="#000000" fill="#48BB78"/><path d="m375.107 211.229c0-12.879-5.015-24.985-14.121-34.092-18.799-18.799-49.385-18.798-68.184-.001l-36.802 36.803-36.803-36.803c-9.397-9.397-21.747-14.099-34.092-14.099-12.348 0-24.691 4.699-34.092 14.099-18.798 18.799-18.798 49.386 0 68.185l104.987 104.987 104.986-104.986c9.107-9.107 14.121-21.215 14.121-34.093z" data-original="#000000" class="active-path" data-old_color="#000000" fill="#48BB78"/><path d="m134.266 271h-133.819c1.116 19.448 4.4 38.485 9.734 56.834h180.919z" data-original="#000000" class="active-path" data-old_color="#000000" fill="#48BB78"/><path d="m106.893 211.229c0-9.385 1.655-18.512 4.802-27.064h-101.514c-5.334 18.35-8.618 37.386-9.734 56.835h112.292c-3.834-9.32-5.846-19.39-5.846-29.771z" data-original="#000000" class="active-path" data-old_color="#000000" fill="#48BB78"/><path d="m399.212 241h112.341c-1.116-19.448-4.4-38.485-9.734-56.834h-101.568c6.734 18.339 6.396 38.706-1.039 56.834z" data-original="#000000" class="active-path" data-old_color="#000000" fill="#48BB78"/><path d="m256 0c-64.678 0-125.686 23.836-173.02 67.332h346.04c-47.334-43.496-108.342-67.332-173.02-67.332z" data-original="#000000" class="active-path" data-old_color="#000000" fill="#48BB78"/><path d="m256 512c64.679 0 125.687-23.837 173.021-67.333h-346.042c47.334 43.496 108.342 67.333 173.021 67.333z" data-original="#000000" class="active-path" data-old_color="#000000" fill="#48BB78"/><path d="m377.734 271-56.834 56.833h180.919c5.334-18.349 8.618-37.385 9.734-56.834h-133.819z" data-original="#000000" class="active-path" data-old_color="#000000" fill="#48BB78"/></g></g> </svg>
